<?xml version="1.0" standalone="no"?>
<!DOCTYPE svg PUBLIC "-//W3C//DTD SVG 20010904//EN"
 "http://www.w3.org/TR/2001/REC-SVG-20010904/DTD/svg10.dtd">
<svg version="1.0" xmlns="http://www.w3.org/2000/svg"
 width="626.000000pt" height="626.000000pt" viewBox="0 0 626.000000 626.000000"
 preserveAspectRatio="xMidYMid meet">

<g transform="translate(0.000000,626.000000) scale(0.100000,-0.100000)"
fill="#000000" stroke="none">
<path d="M3165 6029 c131 -5 201 -13 255 -28 41 -11 76 -18 78 -16 5 5 -93 32
-162 44 -33 6 -125 10 -205 9 l-146 -1 180 -8z"/>
<path d="M2933 6023 c9 -2 25 -2 35 0 9 3 1 5 -18 5 -19 0 -27 -2 -17 -5z"/>
<path d="M2929 5990 c-183 -29 -444 -127 -601 -226 -41 -26 -63 -33 -32 -9 22
17 12 20 -18 4 -11 -6 -22 -8 -25 -5 -3 2 26 21 63 40 38 19 66 35 62 36 -4 0
-85 -38 -180 -85 -233 -115 -325 -137 -372 -89 -38 37 -3 133 57 159 20 9 25
14 14 15 -11 0 -34 -15 -52 -33 -60 -60 -83 -197 -46 -269 l18 -37 -86 -55
c-230 -145 -361 -336 -361 -525 0 -65 -1 -66 -39 -93 -20 -15 -59 -32 -85 -39
-39 -10 -53 -9 -90 5 -52 20 -61 37 -42 75 19 35 37 50 83 68 l38 14 -44 -5
c-82 -9 -146 -80 -138 -155 9 -84 69 -131 175 -138 51 -4 82 0 130 16 l64 22
21 -28 c12 -15 22 -30 21 -33 0 -3 -17 -39 -37 -80 -44 -90 -61 -173 -52 -255
3 -33 2 -71 -3 -85 -5 -14 -6 -38 -1 -54 5 -16 8 -31 6 -32 -1 -1 -33 5 -72
13 -38 8 -93 12 -121 10 -62 -6 -138 -38 -155 -66 -11 -16 -16 -18 -29 -8 -12
9 -13 9 -2 -3 6 -8 12 -31 12 -51 0 -48 15 -87 46 -119 l24 -26 -50 -37 c-28
-21 -67 -60 -87 -88 l-36 -50 -41 38 -41 38 41 -45 c41 -45 41 -45 27 -80 -21
-49 -28 -165 -14 -232 26 -122 120 -255 235 -332 l53 -35 -29 -84 c-15 -46
-31 -109 -36 -138 l-7 -54 -110 1 c-85 1 -123 6 -170 23 -67 24 -131 65 -146
93 -14 27 11 62 62 88 79 41 161 25 178 -34 9 -29 9 -29 10 -6 4 115 -220 136
-290 28 l-21 -33 6 40 c4 27 15 49 36 68 17 15 26 27 20 27 -5 0 -27 -17 -48
-38 -120 -120 -37 -297 184 -399 l55 -25 -93 -45 c-126 -62 -230 -164 -285
-279 -33 -68 -38 -88 -38 -149 1 -82 16 -116 79 -180 52 -52 140 -96 269 -134
118 -35 140 -49 169 -104 47 -90 23 -191 -58 -246 -102 -70 -286 -11 -360 115
-34 58 -43 147 -20 195 l17 34 -20 -25 c-31 -39 -44 -102 -39 -186 l5 -77 -19
24 c-40 49 -62 112 -63 176 0 46 -2 56 -9 40 -5 -12 -9 -59 -9 -103 -1 -72 3
-89 31 -147 96 -194 377 -302 567 -218 l45 20 -7 -27 c-5 -15 -7 -51 -6 -80 3
-109 75 -180 253 -247 131 -50 210 -86 210 -96 0 -5 -18 -9 -40 -9 -22 0 -40
-4 -40 -10 0 -5 -20 -8 -47 -5 l-48 4 45 -10 c25 -5 78 -8 118 -6 86 5 86 5
243 -154 68 -69 115 -108 170 -138 l76 -41 22 -208 c12 -114 26 -225 30 -247
l9 -40 1 47 c1 41 -10 151 -24 229 -4 24 1 29 53 52 31 14 89 35 127 47 75 23
278 60 327 60 l31 0 -8 -215 -7 -215 830 0 829 0 7 88 c29 381 27 597 -9 897
-8 72 -16 209 -17 305 l-2 175 -6 -180 c-3 -99 -7 -161 -8 -138 -2 35 -5 42
-22 40 -15 -1 -20 -8 -20 -29 0 -29 -14 -38 -23 -15 -4 8 -6 8 -6 1 -1 -9 -31
-11 -103 -8 -100 4 -117 10 -118 42 0 6 -4 12 -9 12 -9 0 -21 -60 -12 -60 3
-1 26 -19 51 -42 50 -46 38 -40 -32 16 -40 32 -47 44 -51 79 l-4 42 -1 -47
c-1 -26 3 -50 8 -53 6 -4 7 -11 4 -17 -4 -6 -3 -8 3 -5 5 3 30 -15 54 -41 l44
-47 -46 43 c-46 43 -58 45 -60 8 -3 -40 -27 130 -39 271 l-12 142 25 45 c69
123 75 243 19 354 l-32 64 33 -7 c17 -4 106 -34 197 -66 272 -97 366 -180 414
-365 15 -61 66 -402 66 -446 0 -14 7 -39 15 -54 8 -16 15 -42 15 -57 0 -16 4
-26 9 -23 13 8 24 -48 16 -82 -4 -22 0 -33 22 -52 15 -14 22 -18 16 -10 -20
23 -15 30 20 30 43 0 116 26 237 83 52 25 112 48 132 51 37 7 75 -5 90 -28 15
-21 8 -60 -14 -84 -23 -24 -23 -25 -2 -14 89 46 100 167 22 239 -67 63 -141
65 -340 7 -109 -32 -121 -33 -151 -20 -50 20 -77 60 -77 113 0 63 12 79 71 93
70 17 166 8 224 -21 50 -25 95 -70 95 -96 0 -14 -3 -13 -22 3 l-23 19 19 -22
c25 -30 44 -29 52 3 23 92 -103 211 -241 229 -76 9 -97 15 -93 24 2 5 26 27
53 48 l50 40 37 -19 c21 -11 61 -26 90 -34 71 -18 233 -30 241 -17 4 6 -9 13
-31 17 -20 3 -75 24 -122 46 -47 22 -93 40 -102 40 -25 0 -22 8 12 37 36 30
52 57 59 101 5 30 13 36 83 66 125 54 242 148 272 219 6 15 63 -47 82 -90 62
-144 -123 -298 -288 -239 -21 8 -35 10 -32 5 10 -17 109 -39 173 -39 94 0 139
16 187 64 89 89 79 218 -27 336 -18 20 -27 26 -20 13 6 -12 16 -25 21 -28 15
-9 63 -95 57 -101 -3 -3 -13 8 -21 25 -17 31 -94 111 -108 111 -4 0 -33 16
-63 35 -68 44 -233 125 -254 125 -12 0 -13 2 -3 8 15 10 -27 24 -126 43 -34 6
-65 15 -67 19 -11 18 210 -25 280 -54 26 -11 35 -12 35 -3 1 7 5 6 13 -4 7 -9
28 -23 47 -33 19 -9 26 -11 15 -4 -10 7 -46 42 -79 76 -68 72 -109 96 -216
128 l-75 23 75 2 75 2 -75 8 c-113 13 -115 17 -10 18 150 2 253 -33 340 -113
l45 -41 -35 39 c-88 96 -177 126 -405 135 -189 8 -223 18 -245 71 -27 66 29
122 237 234 123 66 139 73 129 58 -11 -18 16 -82 45 -106 16 -14 45 -28 64
-32 19 -3 32 -10 29 -15 -8 -14 -50 -11 -90 6 -44 18 -36 3 10 -19 185 -88
451 168 445 429 l-1 50 -8 -47 c-5 -26 -19 -69 -32 -95 -24 -49 -116 -151
-156 -172 -12 -7 11 21 51 61 97 96 120 161 101 281 -4 20 -11 37 -16 37 -5 0
-7 -4 -3 -10 7 -11 -11 -130 -22 -141 -4 -4 -8 27 -8 69 0 61 -6 91 -28 145
-26 65 -28 95 -5 81 7 -5 8 -2 3 6 -4 6 -8 60 -9 119 -1 99 -4 110 -35 173
-18 37 -62 99 -98 138 -67 75 -76 98 -24 60 47 -33 138 -66 216 -79 78 -13
173 -4 257 26 l47 17 41 -29 c99 -68 144 -151 144 -265 1 -98 -23 -165 -81
-230 -53 -59 -107 -90 -178 -100 -43 -6 -45 -8 -14 -9 117 -4 264 101 331 237
30 60 33 75 33 157 0 84 -3 95 -37 165 -20 41 -51 94 -69 117 l-32 42 56 61
c61 65 123 181 132 245 5 39 4 38 -9 -8 -36 -124 -120 -233 -214 -281 -63 -32
-171 -58 -221 -54 -30 3 -24 6 39 18 98 19 64 23 -91 12 -139 -11 -220 3 -318
53 -71 36 -64 39 12 6 96 -43 158 -55 261 -48 161 12 243 44 339 136 54 51
117 141 117 166 0 6 -14 -14 -31 -44 -31 -55 -96 -126 -142 -156 -26 -16 -26
-16 -116 56 -50 40 -90 74 -88 75 1 1 25 -2 52 -8 67 -13 126 3 169 45 17 18
20 22 5 9 -14 -13 -48 -30 -74 -37 -41 -13 -56 -13 -117 0 -59 12 -86 26 -181
92 -164 114 -332 285 -427 436 -182 287 -272 418 -346 507 -43 52 -90 111
-103 130 -13 19 -35 50 -50 69 l-25 34 40 -21 c54 -27 191 -131 230 -173 17
-19 43 -52 58 -74 36 -55 32 -38 -8 34 -70 124 -162 227 -280 315 -27 20 -46
36 -42 36 13 0 91 -43 98 -54 4 -6 8 -8 8 -3 0 4 12 0 28 -9 l27 -16 -25 23
c-14 13 -41 36 -60 52 l-35 27 33 -5 c18 -3 41 -10 50 -15 9 -5 33 -17 52 -26
l35 -17 -25 27 c-13 15 -30 24 -38 21 -7 -2 -10 -1 -7 4 6 11 -36 45 -118 94
-32 19 -52 37 -45 40 14 5 -84 37 -113 37 -10 0 -34 11 -54 24 -54 37 -115 43
-198 19 l-69 -21 -41 45 c-23 25 -48 54 -55 64 -7 11 -18 19 -25 19 -6 0 -37
18 -68 40 -80 56 -209 116 -304 141 -64 17 -116 22 -255 25 -96 1 -200 -1
-231 -6z m81 -210 c-140 -23 -192 -26 -211 -14 -21 13 107 31 226 32 l100 0
-115 -18z m54 -29 c6 -9 -121 -36 -225 -48 -77 -9 -54 12 33 31 67 14 109 20
165 24 12 1 24 -2 27 -7z m-2 -63 c9 -5 5 -8 -12 -8 -25 0 -186 -32 -232 -45
l-23 -7 24 18 c56 41 205 67 243 42z m1075 -24 c-3 -3 -12 -4 -19 -1 -8 3 -5
6 6 6 11 1 17 -2 13 -5z m-1186 -109 c-30 -8 -69 -11 -85 -7 -26 6 -20 8 34
13 101 9 109 8 51 -6z m638 -15 c46 -11 91 -25 100 -30 24 -14 12 -12 -86 12
-73 18 -117 22 -253 22 -152 0 -200 -5 -380 -40 -24 -4 -24 -4 -2 5 24 11 211
48 277 55 80 8 262 -4 344 -24z m-744 -1 c14 -6 7 -8 -25 -4 -32 4 -39 2 -25
-4 19 -9 19 -10 -2 -10 -12 -1 -30 2 -40 6 -16 6 -15 8 7 14 35 10 62 9 85 -2z
m-98 -25 c-3 -3 -12 -4 -19 -1 -8 3 -5 6 6 6 11 1 17 -2 13 -5z m893 -45 c96
-26 159 -53 246 -106 74 -45 174 -141 174 -168 0 -9 9 -33 20 -54 11 -22 22
-59 25 -83 l5 -43 -14 35 c-7 19 -19 34 -26 32 -6 -1 -9 2 -6 7 9 14 -3 38
-18 38 -10 0 -7 -17 10 -66 13 -36 23 -77 23 -91 0 -15 -9 1 -23 42 -48 136
-118 218 -222 258 -49 19 -81 24 -189 26 -124 2 -126 2 -35 -5 85 -7 217 -37
206 -48 -2 -2 -30 3 -62 13 -75 22 -261 21 -364 -1 -41 -9 -127 -33 -190 -54
-63 -22 -124 -42 -135 -46 -70 -22 74 42 158 71 56 19 89 33 72 30 -47 -8
-155 -36 -214 -57 -50 -17 -52 -17 -35 -1 10 10 44 27 74 38 53 21 71 43 40
51 -12 4 -12 3 -2 -5 10 -7 5 -11 -18 -16 -48 -9 -90 -7 -90 4 0 6 9 10 20 10
11 0 20 5 20 11 0 6 7 8 16 5 8 -3 12 -2 9 4 -3 5 26 19 65 31 38 11 70 23 70
25 0 13 -202 -51 -273 -88 -22 -11 -41 -17 -44 -14 -4 3 7 11 23 18 62 27 25
78 -53 73 -26 -2 -69 -17 -110 -40 -37 -20 -57 -27 -43 -16 40 33 188 106 280
139 83 29 204 57 285 66 82 8 251 -4 325 -25z m-1000 -29 c-52 -22 -98 -39
-103 -37 -11 3 76 45 138 65 72 24 52 8 -35 -28z m275 -200 c-3 -5 -12 -10
-18 -10 -7 0 -6 4 3 10 19 12 23 12 15 0z m1427 -8 c142 -51 260 -186 497
-569 100 -163 142 -217 245 -317 75 -73 118 -107 372 -293 112 -83 187 -147
162 -139 -10 3 -17 0 -15 -6 2 -13 -64 -36 -106 -37 -39 -1 -237 130 -320 211
-77 76 -178 211 -277 372 -119 193 -259 350 -354 396 -189 91 -389 -126 -309
-336 43 -112 133 -220 316 -381 152 -133 252 -229 279 -268 12 -18 -6 -5 -43
31 -35 33 -125 113 -200 177 -146 124 -227 209 -295 310 -78 115 -98 194 -82
324 7 58 15 76 28 68 5 -3 11 -1 15 4 3 6 -3 8 -14 6 -20 -4 -39 23 -24 34 4
3 8 15 8 26 -1 54 113 113 197 102 38 -5 39 -4 23 13 -9 10 -42 32 -73 49 -31
17 -74 46 -96 65 l-38 33 33 7 c33 7 33 8 10 17 -13 5 -33 7 -45 4 -15 -5 -17
-4 -7 3 9 6 12 22 9 45 -3 32 -1 36 22 40 17 3 13 5 -15 6 -32 2 -36 4 -20 11
31 13 65 11 117 -8z m-491 -111 c85 -32 133 -72 163 -133 29 -61 42 -161 28
-228 -9 -43 -10 -41 -11 36 -3 198 -78 284 -281 320 -109 19 -139 15 -44 -6
152 -34 239 -92 268 -177 9 -26 16 -54 15 -62 0 -9 -8 4 -16 29 -9 25 -24 57
-34 71 -20 28 -116 95 -125 87 -3 -3 11 -15 31 -27 23 -13 43 -37 56 -65 22
-50 38 -151 20 -126 -6 8 -11 25 -11 37 0 30 -45 80 -93 105 -122 62 -241 74
-381 38 -95 -24 -142 -44 -281 -123 -175 -99 -181 -79 -17 55 182 150 323 201
537 194 92 -3 133 -8 176 -25z m-67 -145 c49 -22 43 -29 -9 -11 -82 29 -276
15 -411 -31 -68 -23 -193 -86 -275 -139 -38 -25 -69 -41 -69 -37 0 23 235 157
340 194 137 49 340 60 424 24z m-111 -23 c-13 -2 -35 -2 -50 0 -16 2 -5 4 22
4 28 0 40 -2 28 -4z m107 -19 c23 -9 39 -18 37 -20 -2 -2 -25 5 -53 16 -27 10
-43 19 -37 20 7 0 31 -7 53 -16z m-6 -243 c-2 -3 -12 3 -22 13 -16 17 -16 18
5 5 12 -7 20 -15 17 -18z m186 -44 c0 -5 -4 -5 -10 -2 -5 3 -10 14 -10 23 0
15 2 15 10 2 5 -8 10 -19 10 -23z m53 -33 c20 -4 36 -12 35 -18 -2 -6 0 -11 4
-11 10 0 58 -47 80 -80 13 -20 8 -17 -15 10 -42 48 -56 42 -29 -12 11 -21 32
-78 47 -128 29 -97 63 -164 133 -264 l45 -64 -44 30 c-108 74 -258 133 -338
133 -66 0 -100 -28 -108 -88 -5 -39 -4 -42 18 -42 135 -2 334 -22 394 -41 81
-24 89 -30 122 -82 80 -126 96 -178 81 -252 l-11 -56 -41 2 c-55 4 -64 8 -62
27 2 9 -4 23 -13 30 -14 10 -11 11 14 7 26 -5 27 -4 8 4 -31 14 -29 19 10 30
l32 9 -32 1 c-17 1 -39 4 -49 8 -14 5 -9 9 22 18 l39 12 -48 0 c-26 0 -53 5
-59 11 -9 9 -8 12 3 12 7 0 28 11 44 25 l30 25 -40 -22 c-30 -15 -49 -19 -70
-14 l-30 8 35 29 c23 20 26 25 9 15 -26 -17 -99 -18 -96 -2 3 15 -66 34 -125
35 -64 1 -97 -9 -150 -46 -37 -25 -115 -129 -105 -140 3 -2 11 5 17 18 20 36
91 109 108 109 8 0 -5 -18 -30 -40 -92 -80 -139 -189 -137 -314 l2 -71 6 57
c6 53 21 92 21 54 0 -24 28 -76 58 -109 43 -45 161 -77 287 -77 106 0 139 5
129 21 -3 5 2 12 10 15 9 3 16 15 16 26 0 10 7 32 15 48 9 17 12 30 8 30 -4 0
-2 5 4 11 6 6 9 18 6 27 -4 8 2 21 12 28 13 9 14 14 5 14 -26 0 -3 11 64 29
36 10 66 18 66 17 0 -1 -9 -44 -21 -96 -11 -52 -38 -191 -59 -308 -47 -261
-67 -311 -172 -419 -119 -122 -298 -242 -547 -366 l-123 -62 -107 1 c-96 0
-116 4 -211 38 -155 55 -532 243 -613 306 -73 57 -161 165 -153 187 3 8 2 11
-4 8 -11 -7 -35 38 -61 113 -22 63 -22 62 -11 62 5 0 19 -26 32 -57 13 -32 34
-75 47 -96 13 -21 21 -42 18 -46 -2 -5 3 -15 13 -22 15 -12 16 -12 7 2 -5 8
-3 6 5 -5 23 -31 131 -138 172 -171 21 -16 61 -42 90 -57 192 -96 279 -138
285 -138 5 0 -26 19 -67 41 -204 111 -359 243 -433 370 -81 138 -135 379 -144
643 l-6 158 24 -7 c36 -11 46 -24 29 -35 -10 -7 -12 -12 -4 -17 6 -5 17 -39
23 -78 7 -38 21 -89 31 -112 13 -30 15 -43 7 -43 -7 -1 6 -10 28 -22 31 -17
63 -22 146 -26 97 -4 111 -2 153 18 98 50 145 123 146 228 0 68 -15 113 -54
165 -14 19 -23 37 -18 42 4 5 1 5 -5 1 -7 -4 -23 0 -35 8 l-22 16 27 0 c112 0
228 -164 247 -350 l7 -65 1 60 c1 33 -3 80 -9 104 -15 65 -71 181 -109 226
l-34 40 37 -34 c20 -19 49 -58 64 -87 15 -29 29 -51 31 -49 7 6 -48 107 -79
146 -37 47 -114 85 -197 98 -72 11 -101 8 -190 -22 -54 -18 -64 -19 -77 -6
-13 12 -4 25 65 100 44 48 77 88 75 91 -16 15 159 14 338 -2 159 -15 161 -14
154 59 -7 69 -31 85 -130 89 -45 2 -109 -1 -141 -7 -33 -6 -61 -9 -63 -7 -4 4
158 109 237 153 189 106 499 203 720 226 62 7 194 7 233 1z m-1341 -71 c-61
-71 -111 -118 -177 -168 l-50 -37 50 43 c28 23 88 82 134 131 47 48 86 88 89
88 2 0 -19 -26 -46 -57z m-102 -6 c0 -2 -10 -12 -22 -23 l-23 -19 19 23 c18
21 26 27 26 19z m1615 -108 c22 -41 11 -36 -14 7 -12 19 -16 32 -11 29 6 -3
17 -19 25 -36z m-1585 -9 c-19 -35 -140 -159 -170 -174 -17 -8 13 28 73 89 56
56 103 103 105 104 1 0 -2 -8 -8 -19z m-180 -14 c0 -2 -7 -7 -16 -10 -8 -3
-12 -2 -9 4 6 10 25 14 25 6z m1809 -71 c0 -5 -6 1 -14 15 -8 14 -14 30 -14
35 0 6 6 -1 14 -15 8 -14 14 -29 14 -35z m-1792 -10 c0 -8 -4 -12 -9 -9 -5 3
-6 10 -3 15 9 13 12 11 12 -6z m77 -37 c-18 -32 -117 -148 -122 -143 -3 3 8
20 24 38 17 17 45 51 63 75 31 40 51 57 35 30z m1746 -23 c0 -5 -5 -3 -10 5
-5 8 -10 20 -10 25 0 6 5 3 10 -5 5 -8 10 -19 10 -25z m-1199 -71 c9 -11 2 -9
-18 6 -18 13 -33 25 -33 27 0 8 38 -17 51 -33z m-651 23 c0 -2 -20 -18 -45
-36 -25 -18 -45 -30 -45 -27 0 4 81 66 87 66 2 0 3 -1 3 -3z m513 -4 c-13 -2
-33 -2 -45 0 -13 2 -3 4 22 4 25 0 35 -2 23 -4z m62 -13 c3 -6 -1 -7 -9 -4
-18 7 -21 14 -7 14 6 0 13 -4 16 -10z m1323 -15 c-3 -3 -9 2 -12 12 -6 14 -5
15 5 6 7 -7 10 -15 7 -18z m-393 -5 c-3 -5 -12 -10 -18 -10 -7 0 -6 4 3 10 19
12 23 12 15 0z m-1062 -17 c-7 -2 -19 -2 -25 0 -7 3 -2 5 12 5 14 0 19 -2 13
-5z m1160 -10 c-7 -2 -19 -2 -25 0 -7 3 -2 5 12 5 14 0 19 -2 13 -5z m-1205
-20 c-10 -2 -26 -2 -35 0 -10 3 -2 5 17 5 19 0 27 -2 18 -5z m-283 -242 c7
-12 -31 -25 -46 -15 -8 4 -7 9 2 15 18 11 36 11 44 0z m1440 -1 c-3 -5 -12
-10 -18 -10 -7 0 -6 4 3 10 19 12 23 12 15 0z m98 3 c-13 -2 -35 -2 -50 0 -16
2 -5 4 22 4 28 0 40 -2 28 -4z m54 -9 c-3 -3 -12 -4 -19 -1 -8 3 -5 6 6 6 11
1 17 -2 13 -5z m-1657 -74 c-8 -5 -22 -9 -30 -9 -10 0 -8 3 5 9 27 12 43 12
25 0z m1651 -5 c137 -49 188 -227 103 -357 -32 -49 -70 -68 -152 -74 -62 -4
-65 -3 -34 8 83 33 139 109 149 202 8 78 -11 131 -67 187 -27 27 -48 49 -46
49 2 0 23 -7 47 -15z m1711 -123 c25 -51 32 -77 34 -140 l3 -77 -8 65 c-8 72
-52 179 -84 207 -13 10 -17 12 -10 3 8 -11 8 -18 -2 -27 -11 -10 -15 -10 -19
0 -3 9 -7 9 -13 -1 -12 -16 -48 21 -40 41 4 11 0 13 -14 10 -19 -5 -18 -8 12
-39 18 -19 35 -32 37 -29 8 8 32 -17 26 -26 -3 -5 4 -22 15 -38 20 -28 44 -81
37 -81 -2 0 -13 19 -25 43 -11 23 -47 69 -80 101 l-60 59 36 24 36 24 26 -23
26 -23 -23 26 c-12 14 -19 29 -15 33 12 12 70 -61 105 -132z m-758 -21 c14
-41 17 -70 14 -139 -3 -48 -11 -100 -18 -117 -13 -30 -13 -29 -21 35 -11 84
-58 309 -70 331 -19 37 -7 32 34 -12 23 -25 50 -69 61 -98z m-2255 119 c25
-13 33 -37 21 -61 -12 -21 -50 -25 -68 -7 -18 18 -15 55 6 67 21 13 20 13 41
1z m1249 -32 c18 -18 14 -46 -7 -58 -28 -14 -66 18 -57 48 8 24 44 30 64 10z
m-1568 -37 c-5 -11 -10 -48 -10 -83 0 -82 35 -157 93 -199 47 -34 36 -39 -14
-6 -57 39 -91 106 -97 192 -4 63 -2 79 13 95 23 25 29 25 15 1z m2693 -119
c52 -96 46 -190 -16 -249 -41 -39 -127 -89 -127 -74 0 7 8 14 18 18 29 10 83
54 77 63 -3 5 0 12 6 16 8 4 9 3 5 -4 -4 -7 -5 -12 -2 -12 13 0 47 73 43 92
-4 22 -4 21 -6 -2 -1 -33 -41 -37 -42 -5 -1 17 -2 16 -12 -6 -10 -22 -12 -7
-12 90 0 83 -5 129 -17 161 l-17 45 37 -41 c21 -23 50 -64 65 -92z m609 69
c-3 -9 -1 -12 6 -7 7 4 12 2 12 -4 0 -7 -6 -10 -12 -7 -7 2 -13 11 -13 20 0 8
-4 19 -8 23 -4 4 -7 14 -7 23 1 11 5 8 14 -8 8 -14 11 -32 8 -40z m-4232 -21
c0 -5 -19 -14 -42 -20 -24 -6 -47 -13 -53 -16 -12 -5 43 3 78 11 26 7 26 7 15
-32 -17 -62 -31 -82 -143 -208 -58 -66 -127 -153 -152 -192 -44 -69 -48 -72
-64 -57 -52 47 -65 204 -24 289 26 54 106 131 152 145 21 7 45 18 53 25 20 16
140 64 163 65 9 0 17 -4 17 -10z m4264 -26 c3 -8 2 -12 -4 -9 -6 3 -10 10 -10
16 0 14 7 11 14 -7z m-3266 -49 c-2 -6 -7 -9 -12 -7 -4 1 -16 -3 -25 -10 -10
-8 -10 -5 3 10 19 22 41 26 34 7z m1240 3 c-3 -7 -12 -14 -21 -16 -12 -2 -15
1 -11 12 7 19 38 22 32 4z m-1192 -19 c8 -14 -11 -33 -25 -25 -11 7 -4 36 9
36 5 0 12 -5 16 -11z m1244 -15 c0 -17 -22 -14 -28 4 -2 7 3 12 12 12 9 0 16
-7 16 -16z m-30 -18 c0 -18 -16 -29 -30 -21 -13 8 -1 35 16 35 8 0 14 -6 14
-14z m-1261 -23 c-12 -15 -12 -16 3 -10 23 8 32 -7 14 -23 -12 -9 -17 -7 -26
10 -11 21 -6 40 12 40 6 0 5 -7 -3 -17z m286 7 c4 -6 1 -18 -6 -26 -11 -14
-13 -14 -21 0 -15 26 12 51 27 26z m1261 -16 c-3 -9 -6 -20 -6 -25 0 -5 -12
-2 -26 7 -19 13 -22 19 -12 25 23 15 51 11 44 -7z m-1488 -24 c-7 -11 -16 -20
-21 -20 -4 0 -3 9 3 20 6 11 15 20 20 20 6 0 5 -9 -2 -20z m1242 11 c0 -12
-26 -32 -33 -25 -9 10 4 34 19 34 8 0 14 -4 14 -9z m37 -36 c-4 -8 -11 -15
-17 -15 -7 0 -7 6 0 21 13 23 26 19 17 -6z m136 8 c-7 -2 -21 -2 -30 0 -10 3
-4 5 12 5 17 0 24 -2 18 -5z m455 -59 c5 -80 -15 -130 -79 -198 -31 -34 -60
-58 -64 -54 -10 10 24 199 40 224 23 36 77 85 89 81 6 -2 12 -26 14 -53z m733
-40 c-5 -16 -10 -21 -10 -12 -1 18 10 51 15 45 2 -1 -1 -16 -5 -33z m-21 -70
c0 -8 -19 -13 -24 -6 -3 5 1 9 9 9 8 0 15 -2 15 -3z m35 -74 c9 -16 13 -30 11
-30 -3 0 -12 14 -21 30 -9 17 -13 30 -11 30 3 0 12 -13 21 -30z m-2908 -92
c-3 -8 -6 -5 -6 6 -1 11 2 17 5 13 3 -3 4 -12 1 -19z m2887 -20 c49 -84 44
-166 -15 -246 -68 -93 -175 -134 -249 -95 -19 10 -36 26 -38 35 -2 12 27 47
82 99 47 45 86 85 86 91 0 5 -29 -20 -64 -55 -114 -114 -266 -201 -449 -258
-55 -17 -101 -29 -103 -26 -2 2 42 23 98 47 248 105 379 180 478 276 25 24 50
43 55 43 6 0 28 30 49 66 22 36 41 65 42 65 2 0 14 -19 28 -42z m-221 -874
c21 -20 36 -38 34 -40 -2 -2 -23 14 -46 36 -23 22 -38 40 -34 40 4 0 25 -16
46 -36z m-2318 -105 l-27 -22 94 -94 c108 -109 192 -175 298 -232 83 -44 201
-91 228 -91 9 1 -19 13 -63 29 -44 15 -95 35 -114 45 l-34 18 129 129 c116
117 246 229 267 229 4 0 8 -35 8 -77 1 -43 4 -66 6 -50 5 31 15 34 34 10 8 -9
42 -29 75 -44 76 -35 118 -81 110 -121 -3 -15 -2 -28 2 -28 4 0 9 -43 10 -96
3 -81 0 -99 -15 -117 -16 -19 -16 -20 0 -8 11 9 17 10 17 2 0 -6 -21 -25 -47
-42 -149 -94 -324 -77 -539 53 -75 45 -211 145 -233 172 -14 16 -2 23 15 8 5
-5 -38 37 -95 92 -115 111 -161 169 -161 199 0 25 27 57 48 57 9 0 4 -8 -13
-21z m-1601 -35 c23 -57 97 -133 157 -162 l47 -23 -5 -82 c-6 -95 4 -125 61
-175 20 -17 36 -33 36 -36 0 -2 -28 -21 -62 -42 -35 -20 -91 -56 -124 -80
l-62 -42 27 57 c22 48 26 69 26 148 0 90 0 92 -51 190 -29 54 -59 123 -68 153
-17 55 -22 140 -8 140 4 0 15 -21 26 -46z m2570 -49 c39 -26 26 -28 -25 -5
-24 11 -66 20 -94 20 -33 1 -44 4 -31 9 27 11 119 -4 150 -24z m1102 -40 c43
-25 89 -88 96 -131 5 -33 -16 -28 -25 6 -5 19 -12 28 -19 24 -7 -4 -8 -3 -4 5
11 16 -27 64 -68 86 -20 11 -36 23 -36 27 0 13 11 9 56 -17z m-1023 -31 c47
-44 53 -59 62 -151 6 -66 5 -77 -21 -130 l-27 -58 -9 75 c-4 41 -13 113 -20
160 -6 47 -11 89 -10 94 2 5 -5 17 -14 27 -30 33 0 20 39 -17z m1466 2 c24
-29 -93 -149 -204 -207 -75 -40 -70 -34 28 31 74 49 103 79 142 145 15 25 13
24 -14 -7 -18 -21 -37 -38 -42 -38 -6 0 7 20 28 45 41 49 45 51 62 31z m-2742
-112 c114 -57 149 -93 175 -177 19 -59 23 -95 23 -197 0 -140 -12 -238 -25
-205 -7 17 -9 15 -16 -14 -7 -33 -9 -30 -39 65 -17 54 -42 119 -55 144 -81
158 -215 287 -332 321 -16 4 -28 4 -28 -2 0 -5 5 -9 12 -9 6 0 9 -2 6 -5 -3
-3 -16 -2 -29 3 -26 10 -28 8 114 95 68 41 77 40 194 -19z m2108 -70 c-3 -23
-12 -50 -20 -60 -11 -16 -11 -10 1 36 8 30 15 73 16 95 1 40 1 40 5 5 3 -19 2
-53 -2 -76z m-2375 -44 c99 -50 162 -124 235 -275 63 -130 102 -232 92 -241
-3 -3 -8 8 -12 25 -4 17 -10 31 -15 31 -4 0 -13 14 -20 30 -14 35 -27 39 -32
10 -3 -19 -5 -18 -33 7 -44 41 -76 61 -37 24 18 -17 27 -31 21 -31 -8 0 -7 -6
2 -17 8 -10 -6 1 -30 25 -24 23 -48 42 -53 42 -6 0 -7 7 -4 16 5 14 4 15 -8 5
-20 -17 -44 -8 -85 31 -31 30 -38 33 -87 30 -51 -4 -54 -2 -54 20 0 12 -5 30
-10 38 -8 13 -10 12 -10 -3 0 -10 -4 -15 -10 -12 -6 4 -10 -8 -11 -27 -1 -20
-3 -26 -6 -14 -9 33 17 168 43 226 22 48 50 90 61 90 2 0 30 -14 63 -30z m538
-5 c48 -3 58 -8 130 -69 42 -36 113 -87 158 -113 51 -30 92 -63 110 -88 16
-22 57 -75 92 -118 36 -44 60 -82 56 -89 -4 -6 -3 -8 3 -5 8 5 138 -136 146
-159 1 -4 -7 -10 -18 -14 -16 -6 -21 -4 -21 11 0 13 3 15 13 7 8 -7 13 -7 13
0 0 14 -26 33 -34 24 -4 -4 -6 -2 -5 3 4 13 -23 55 -34 55 -5 0 -6 -7 -3 -16
5 -13 3 -14 -6 -7 -7 6 -74 11 -148 12 -103 2 -149 7 -192 22 -32 10 -64 19
-73 19 -8 0 -15 6 -15 13 0 9 -2 9 -9 -1 -7 -11 -21 -10 -82 5 l-74 18 -6 160
c-7 176 -23 243 -76 312 l-28 37 25 -8 c14 -5 49 -10 78 -11z m468 -274 c19
-20 168 -73 242 -87 115 -22 188 -5 253 60 l36 36 6 -106 c10 -163 9 -292 -3
-274 -7 10 -8 1 -4 -30 4 -25 4 -42 0 -39 -11 10 -24 99 -15 105 5 3 9 27 9
54 0 41 -4 52 -26 69 -37 29 -78 27 -104 -6 -15 -20 -19 -34 -14 -56 4 -20 3
-27 -5 -23 -6 4 -11 1 -11 -6 0 -9 -3 -9 -10 2 -8 12 -10 10 -7 -10 1 -14 6
-31 10 -37 5 -8 4 -13 -2 -13 -6 0 -11 5 -11 11 0 6 -6 9 -12 6 -7 -2 -12 -11
-10 -20 4 -22 -23 -15 -53 13 -28 26 -35 50 -8 29 10 -8 3 5 -16 29 -18 23
-35 42 -38 42 -4 0 1 -8 9 -17 20 -23 31 -43 24 -43 -5 0 -163 187 -234 278
-19 23 -30 42 -25 42 5 0 13 -4 19 -9z m-1613 -280 c14 -67 102 -130 185 -131
51 0 57 -22 12 -45 -91 -47 -240 21 -240 110 0 37 18 95 30 95 4 0 10 -13 13
-29z m1046 -11 c0 -10 -3 -8 -9 5 -12 27 -12 43 0 25 5 -8 9 -22 9 -30z m912
-137 c13 -16 12 -17 -3 -4 -10 7 -18 15 -18 17 0 8 8 3 21 -13z m276 -15 c-3
-7 -5 -2 -5 12 0 14 2 19 5 13 2 -7 2 -19 0 -25z m-1592 -288 c59 -10 342 -94
354 -105 3 -4 6 -32 6 -63 0 -52 -2 -57 -23 -60 -13 -2 -71 17 -131 42 -173
73 -256 89 -447 84 l-160 -4 7 39 c3 21 11 43 16 48 26 26 262 38 378 19z"/>
<path d="M3390 5470 c-12 -8 -12 -10 5 -10 11 0 27 5 35 10 12 8 12 10 -5 10
-11 0 -27 -5 -35 -10z"/>
<path d="M3308 5463 c12 -2 32 -2 45 0 12 2 2 4 -23 4 -25 0 -35 -2 -22 -4z"/>
<path d="M3525 5459 c74 -11 151 -33 221 -64 30 -13 54 -22 54 -19 0 10 -117
57 -189 75 -41 10 -90 18 -110 18 -27 -1 -21 -4 24 -10z"/>
<path d="M3233 5453 c9 -2 25 -2 35 0 9 3 1 5 -18 5 -19 0 -27 -2 -17 -5z"/>
<path d="M3178 5443 c6 -2 18 -2 25 0 6 3 1 5 -13 5 -14 0 -19 -2 -12 -5z"/>
<path d="M3138 5433 c7 -3 16 -2 19 1 4 3 -2 6 -13 5 -11 0 -14 -3 -6 -6z"/>
<path d="M3068 5413 c7 -3 16 -2 19 1 4 3 -2 6 -13 5 -11 0 -14 -3 -6 -6z"/>
<path d="M2951 5377 c-30 -11 -50 -22 -44 -24 5 -2 34 8 64 21 66 30 54 32
-20 3z"/>
<path d="M3613 5323 c15 -2 39 -2 55 0 15 2 2 4 -28 4 -30 0 -43 -2 -27 -4z"/>
<path d="M3528 5313 c6 -2 18 -2 25 0 6 3 1 5 -13 5 -14 0 -19 -2 -12 -5z"/>
<path d="M3788 5303 c7 -3 16 -2 19 1 4 3 -2 6 -13 5 -11 0 -14 -3 -6 -6z"/>
<path d="M3378 5273 c7 -3 16 -2 19 1 4 3 -2 6 -13 5 -11 0 -14 -3 -6 -6z"/>
<path d="M3533 5113 c9 -2 25 -2 35 0 9 3 1 5 -18 5 -19 0 -27 -2 -17 -5z"/>
<path d="M3335 3088 c3 -7 15 -19 26 -26 15 -10 19 -10 14 -1 -6 9 -1 10 18 5
21 -5 25 -3 20 9 -3 10 -15 15 -32 13 -14 -1 -32 1 -38 5 -8 5 -11 3 -8 -5z"/>
<path d="M3529 3081 l-24 -19 30 2 c30 3 35 7 35 26 0 15 -15 12 -41 -9z"/>
<path d="M3018 2936 c-21 -21 -25 -44 -5 -27 11 8 31 -8 93 -76 43 -48 78 -90
77 -94 -1 -4 8 -15 20 -25 18 -16 20 -16 8 -1 -8 10 -9 17 -3 17 6 0 14 -5 18
-11 3 -6 30 -22 58 -35 73 -34 174 -33 235 1 49 28 55 30 45 13 -4 -7 5 -2 19
11 15 13 24 28 21 32 -3 5 -1 9 4 9 5 0 23 21 41 46 38 51 142 127 149 106 2
-6 8 -10 13 -6 16 10 -11 44 -34 43 -12 0 -16 -3 -9 -6 21 -8 13 -19 -30 -39
-32 -14 -63 -19 -128 -17 -47 0 -177 3 -290 5 -178 3 -210 6 -242 22 -20 11
-38 26 -40 34 -3 13 -6 13 -20 -2z m252 -84 c36 5 125 6 200 2 74 -4 142 -6
150 -5 37 6 -40 -34 -104 -55 -39 -12 -62 -23 -51 -23 18 -2 18 -3 3 -12 -30
-17 -149 -12 -198 9 -25 10 -58 22 -75 26 l-29 7 19 -23 20 -23 -22 18 c-24
21 -20 52 6 41 86 -36 153 -53 201 -52 l55 1 -65 7 c-68 7 -179 48 -221 81
l-24 20 35 -14 c28 -11 51 -12 100 -5z m283 -79 c-7 -2 -13 -11 -13 -19 0 -16
-39 -34 -71 -34 -34 0 -16 24 32 42 24 9 49 17 54 17 6 0 4 -3 -2 -6z m37 -17
c0 -2 -8 -10 -17 -17 -16 -13 -17 -12 -4 4 13 16 21 21 21 13z m-349 -23 c13
-16 12 -17 -3 -4 -17 13 -22 21 -14 21 2 0 10 -8 17 -17z m359 3 c0 -2 -8 -10
-17 -17 -16 -13 -17 -12 -4 4 13 16 21 21 21 13z"/>
<path d="M3568 2833 c7 -3 16 -2 19 1 4 3 -2 6 -13 5 -11 0 -14 -3 -6 -6z"/>
<path d="M2460 2842 c1 -11 59 -76 64 -71 2 2 -11 21 -30 41 -19 21 -34 34
-34 30z"/>
<path d="M4174 3428 l-19 -23 23 19 c21 18 27 26 19 26 -2 0 -12 -10 -23 -22z"/>
<path d="M5183 3505 c0 -22 2 -30 4 -17 2 12 2 30 0 40 -3 9 -5 -1 -4 -23z"/>
<path d="M3642 1747 c-18 -27 -26 -44 -17 -37 17 14 59 80 54 84 -2 2 -19 -19
-37 -47z"/>
<path d="M3580 1690 c-9 -6 -10 -10 -3 -10 6 0 15 5 18 10 8 12 4 12 -15 0z"/>
<path d="M3525 1670 c-13 -6 -15 -9 -5 -9 8 0 22 4 30 9 18 12 2 12 -25 0z"/>
<path d="M3298 1663 c6 -2 18 -2 25 0 6 3 1 5 -13 5 -14 0 -19 -2 -12 -5z"/>
<path d="M3378 1653 c23 -2 61 -2 85 0 23 2 4 4 -43 4 -47 0 -66 -2 -42 -4z"/>
<path d="M3463 1513 c9 -2 23 -2 30 0 6 3 -1 5 -18 5 -16 0 -22 -2 -12 -5z"/>
<path d="M2230 1402 c0 -4 9 -8 20 -8 11 0 20 4 20 8 0 4 -9 8 -20 8 -11 0
-20 -4 -20 -8z"/>
<path d="M2414 1396 c-3 -8 -1 -22 4 -32 7 -13 9 -10 8 15 -1 34 -4 38 -12 17z"/>
<path d="M3288 1198 c15 -15 16 -32 2 -23 -5 3 -10 1 -10 -4 0 -13 10 -14 29
-2 12 8 12 12 2 25 -8 9 -18 16 -24 16 -7 0 -7 -4 1 -12z"/>
<path d="M3210 1178 c0 -4 6 -8 14 -8 8 0 17 4 20 8 2 4 -4 8 -15 8 -10 0 -19
-4 -19 -8z"/>
<path d="M3530 5965 c14 -8 30 -14 35 -14 6 0 -1 6 -15 14 -14 8 -29 14 -35
14 -5 0 1 -6 15 -14z"/>
<path d="M3580 5946 c0 -3 9 -10 20 -16 11 -6 20 -8 20 -6 0 3 -9 10 -20 16
-11 6 -20 8 -20 6z"/>
<path d="M3630 5917 c0 -3 12 -12 26 -22 15 -9 23 -12 20 -6 -7 11 -46 35 -46
28z"/>
<path d="M3705 5860 c10 -11 20 -20 23 -20 3 0 -3 9 -13 20 -10 11 -20 20 -23
20 -3 0 3 -9 13 -20z"/>
<path d="M4447 5541 c216 -145 383 -375 596 -824 99 -209 149 -302 196 -367
53 -73 103 -128 144 -161 30 -23 22 -13 -26 37 -100 103 -152 187 -317 519
-82 165 -180 347 -217 405 -83 127 -201 270 -269 326 -54 46 -172 124 -186
124 -5 0 31 -27 79 -59z"/>
<path d="M5756 4515 c10 -8 26 -14 34 -14 9 0 4 6 -10 14 -33 19 -49 19 -24 0z"/>
<path d="M5800 4476 c0 -2 8 -10 18 -17 15 -13 16 -12 3 4 -13 16 -21 21 -21
13z"/>
<path d="M5865 4426 c10 -14 19 -26 22 -26 7 0 -17 39 -28 46 -6 3 -3 -5 6
-20z"/>
<path d="M5890 4385 c0 -5 5 -17 10 -25 5 -8 10 -10 10 -5 0 6 -5 17 -10 25
-5 8 -10 11 -10 5z"/>
<path d="M5862 4295 c-1 -39 -6 -86 -12 -104 -5 -19 -8 -37 -5 -39 10 -11 26
86 22 146 l-3 67 -2 -70z"/>
<path d="M5912 4330 c0 -8 4 -26 8 -40 6 -20 8 -21 8 -5 0 11 -3 29 -8 40 -5
12 -8 14 -8 5z"/>
<path d="M5645 4234 c-32 -60 -148 -126 -175 -101 -10 9 -11 9 -6 0 5 -9 -2
-13 -21 -14 -21 -2 -19 -3 12 -8 22 -3 42 -3 43 2 2 4 9 7 16 7 26 0 106 61
132 100 15 22 25 42 23 45 -3 2 -13 -12 -24 -31z"/>
<path d="M1239 4243 c-13 -16 -12 -17 4 -4 9 7 17 15 17 17 0 8 -8 3 -21 -13z"/>
<path d="M1183 4188 c-15 -20 -25 -38 -20 -38 3 0 12 11 21 25 17 26 16 35 -1
13z"/>
<path d="M783 3910 c0 -25 2 -35 4 -22 2 12 2 32 0 45 -2 12 -4 2 -4 -23z"/>
<path d="M5610 3840 c-8 -5 -10 -10 -5 -10 6 0 17 5 25 10 8 5 11 10 5 10 -5
0 -17 -5 -25 -10z"/>
<path d="M5362 3145 c0 -16 2 -22 5 -12 2 9 2 23 0 30 -3 6 -5 -1 -5 -18z"/>
<path d="M5177 2139 c4 -13 8 -18 11 -10 2 7 -1 18 -6 23 -8 8 -9 4 -5 -13z"/>
<path d="M5187 2090 c-3 -10 1 -24 9 -31 10 -8 14 -8 14 0 0 6 -4 11 -9 11 -5
0 -7 9 -4 20 3 11 3 20 0 20 -2 0 -7 -9 -10 -20z"/>
<path d="M5231 2094 c0 -11 3 -14 6 -6 3 7 2 16 -1 19 -3 4 -6 -2 -5 -13z"/>
<path d="M5130 2066 c0 -3 9 -10 20 -16 11 -6 20 -8 20 -6 0 3 -9 10 -20 16
-11 6 -20 8 -20 6z"/>
<path d="M4176 1750 c4 -14 9 -176 9 -360 1 -251 4 -354 15 -410 17 -86 19
-697 3 -878 -8 -96 -8 -102 10 -102 18 0 19 7 13 118 -3 64 -3 171 2 237 l7
120 45 22 c25 12 71 32 103 44 50 19 57 25 57 49 0 23 11 34 72 71 45 27 74
52 76 64 2 12 0 16 -5 9 -4 -6 -33 -16 -65 -22 -31 -6 -106 -36 -167 -66 -61
-31 -112 -56 -113 -56 -2 0 -2 20 0 43 4 47 4 48 159 134 29 16 50 32 47 36
-3 3 4 10 15 17 17 9 21 20 21 61 0 42 -5 54 -27 76 -20 18 -24 27 -15 30 10
4 7 12 -10 30 -18 19 -20 26 -9 33 11 6 12 26 7 91 -4 46 -11 102 -16 124 -7
33 -8 28 -5 -30 2 -38 1 -60 -1 -48 -4 16 -15 24 -40 29 -19 3 -34 10 -34 15
0 5 -16 9 -36 9 -25 0 -35 -4 -32 -12 3 -7 -3 -22 -13 -32 -19 -19 -19 -19
-19 5 0 13 -5 85 -10 159 -6 74 -14 193 -19 263 -5 79 -13 133 -21 140 -10 10
-11 7 -4 -13z"/>
<path d="M4161 1694 c0 -11 3 -14 6 -6 3 7 2 16 -1 19 -3 4 -6 -2 -5 -13z"/>
<path d="M4270 1675 c19 -19 36 -35 39 -35 3 0 -10 16 -29 35 -19 19 -36 35
-39 35 -3 0 10 -16 29 -35z"/>
<path d="M4163 1590 c0 -41 2 -58 4 -37 2 20 2 54 0 75 -2 20 -4 3 -4 -38z"/>
<path d="M4362 1480 c0 -14 2 -19 5 -12 2 6 2 18 0 25 -3 6 -5 1 -5 -13z"/>
<path d="M4371 1434 c0 -11 3 -14 6 -6 3 7 2 16 -1 19 -3 4 -6 -2 -5 -13z"/>
<path d="M4382 1390 c0 -14 2 -19 5 -12 2 6 2 18 0 25 -3 6 -5 1 -5 -13z"/>
<path d="M4392 1335 c0 -16 2 -22 5 -12 2 9 2 23 0 30 -3 6 -5 -1 -5 -18z"/>
<path d="M4492 350 c0 -14 2 -19 5 -12 2 6 2 18 0 25 -3 6 -5 1 -5 -13z"/>
<path d="M4512 220 c0 -14 2 -19 5 -12 2 6 2 18 0 25 -3 6 -5 1 -5 -13z"/>
<path d="M4521 164 c0 -11 3 -14 6 -6 3 7 2 16 -1 19 -3 4 -6 -2 -5 -13z"/>
</g>
</svg>
